P3
576 5
255
252 194 188 252 194 188 252 198 188 252 198 188 252 198 188 252 198 188 252 198 188 252 202 188 252 198 188 252 202 188 252 202 188 252 202 188 252 202 188 252 202 188 252 206 188 252 206 188 252 206 188 252 206 188 252 206 188 252 210 188 252 206 188 252 210 188 252 210 188 252 210 188 252 210 188 252 214 188 252 214 188 252 214 188 252 214 188 252 214 188 252 214 188 252 214 188 252 218 188 252 218 188 252 218 188 252 218 188 252 218 188 252 218 188 252 222 188 252 222 188 252 222 188 252 222 188 252 222 188 252 222 188 252 222 188 252 226 188 252 226 188 252 226 188 252 226 188 252 226 188 252 226 188 252 230 188 252 230 188 252 230 188 252 230 188 252 230 188 252 230 188 252 234 188 252 230 188 252 234 188 252 234 188 252 234 188 252 234 188 252 238 188 252 238 188 252 238 188 252 238 188 252 238 188 252 238 188 252 242 188 252 238 188 252 242 188 252 242 188 252 242 188 252 246 188 252 242 188 252 246 188 252 246 188 252 246 188 252 246 188 252 246 188 252 250 188 252 250 188 252 250 188 252 250 188 252 250 188 252 250 188 252 254 188 252 254 188 252 254 188 252 254 188 252 254 188 252 254 188 252 254 188 252 254 188 252 254 188 252 254 188 252 254 188 252 254 188 252 254 188 252 254 188 252 254 188 252 254 188 252 254 188 244 254 188 252 254 188 244 254 188 244 254 188 244 254 188 244 254 188 244 254 188 244 254 188 244 254 188 244 254 188 244 254 188 236 254 188 244 254 188 236 254 188 244 254 188 236 254 188 236 254 188 236 254 188 236 254 188 236 254 188 236 254 188 236 254 188 236 254 188 228 254 188 236 254 188 228 254 188 236 254 188 228 254 188 228 254 188 228 254 188 228 254 188 228 254 188 228 254 188 228 254 188 228 254 188 220 254 188 228 254 188 220 254 188 228 254 188 220 254 188 220 254 188 220 254 188 220 254 188 220 254 188 220 254 188 220 254 188 220 254 188 220 254 188 220 254 188 212 254 188 220 254 188 212 254 188 220 254 188 212 254 188 212 254 188 212 254 188 212 254 188 212 254 188 212 254 188 212 254 188 212 254 188 204 254 188 212 254 188 204 254 188 212 254 188 204 254 188 204 254 188 204 254 188 204 254 188 204 254 188 204 254 188 204 254 188 204 254 188 196 254 188 204 254 188 196 254 188 204 254 188 196 254 188 196 254 188 196 254 188 196 254 188 196 254 188 196 254 188 196 254 188 196 254 188 188 254 188 196 254 188 188 254 188 196 254 188 188 254 188 188 254 188 188 254 188 188 254 188 188 254 188 188 254 188 188 254 188 188 254 188 188 254 188 188 254 188 188 254 188 188 254 188 188 254 188 188 254 188 188 254 188 188 254 188 188 254 196 188 254 188 188 254 196 188 254 188 188 254 196 188 254 196 188 254 196 188 254 196 188 254 196 188 254 196 188 254 196 188 254 196 188 254 204 188 254 196 188 254 204 188 254 196 188 254 204 188 254 204 188 254 204 188 254 204 188 254 204 188 254 204 188 254 204 188 254 204 188 254 212 188 254 204 188 254 212 188 254 204 188 254 212 188 254 212 188 254 212 188 254 212 188 254 212 188 254 212 188 254 212 188 254 212 188 254 220 188 254 212 188 254 220 188 254 212 188 254 220 188 254 220 188 254 212 188 254 220 188 254 220 188 254 220 188 254 220 188 254 220 188 254 220 188 254 220 188 254 228 188 254 220 188 254 228 188 254 220 188 254 228 188 254 228 188 254 228 188 254 228 188 254 228 188 254 228 188 254 228 188 254 228 188 254 236 188 254 228 188 254 236 188 254 228 188 254 236 188 254 236 188 254 236 188 254 236 188 254 236 188 254 236 188 254 236 188 254 236 188 254 244 188 254 236 188 254 244 188 254 236 188 254 244 188 254 244 188 254 244 188 254 244 188 254 244 188 254 244 188 254 244 188 254 244 188 254 252 188 254 244 188 254 252 188 254 244 188 254 252 188 254 252 188 254 252 188 254 252 188 254 252 188 254 252 188 254 252 188 254 252 188 254 252 188 254 252 188 254 252 188 254 252 188 254 252 188 254 252 188 254 252 188 254 252 188 250 252 188 250 252 188 250 252 188 250 252 188 250 252 188 250 252 188 246 252 188 246 252 188 246 252 188 246 252 188 246 252 188 246 252 188 242 252 188 242 252 188 242 252 188 242 252 188 242 252 188 238 252 188 238 252 188 238 252 188 238 252 188 238 252 188 238 252 188 238 252 188 234 252 188 234 252 188 234 252 188 234 252 188 234 252 188 234 252 188 230 252 188 230 252 188 230 252 188 230 252 188 230 252 188 230 252 188 226 252 188 226 252 188 226 252 188 226 252 188 226 252 188 222 252 188 222 252 188 222 252 188 222 252 188 222 252 188 222 252 188 222 252 188 218 252 188 218 252 188 218 252 188 218 252 188 218 252 188 218 252 188 218 252 188 214 252 188 214 252 188 214 252 188 214 252 188 214 252 188 214 252 188 210 252 188 210 252 188 210 252 188 210 252 188 210 252 188 210 252 188 206 252 188 206 252 188 206 252 188 206 252 188 206 252 188 206 252 188 206 252 188 202 252 188 202 252 188 202 252 188 202 252 188 202 252 188 198 252 188 198 252 188 198 252 188 198 252 188 198 252 188 198 252 188 194 252 188 194 252 188 194 252 188 194 252 188 194 252 188 194 252 188 190 252 188 190 252 188 190 252 188 190 252 188 190 252 188 190 252 188 186 252 188 186 252 188 186 252 188 186 252 188 186 252 188 186 252 188 186 252 188 186 252 188 186 252 188 186 252 188 186 252 188 186 252 188 186 252 196 186 252 188 186 252 196 186 252 188 186 252 196 186 252 196 186 252 196 186 252 196 186 252 196 186 252 196 186 252 196 186 252 196 186 252 204 186 252 196 186 252 204 186 252 196 186 252 204 186 252 204 186 252 204 186 252 204 186 252 204 186 252 204 186 252 204 186 252 212 186 252 204 186 252 212 186 252 204 186 252 212 186 252 212 186 252 212 186 252 212 186 252 212 186 252 212 186 252 212 186 252 212 186 252 212 186 252 220 186 252 212 186 252 220 186 252 212 186 252 220 186 252 220 186 252 220 186 252 220 186 252 220 186 252 220 186 252 220 186 252 220 186 252 220 186 252 228 186 252 220 186 252 228 186 252 220 186 252 228 186 252 228 186 252 228 186 252 228 186 252 228 186 252 228 186 252 228 186 252 228 186 252 228 186 252 236 186 252 228 186 252 236 186 252 236 186 252 228 186 252 236 186 252 236 186 252 236 186 252 236 186 252 236 186 252 236 186 252 244 186 252 236 186 252 244 186 252 236 186 252 244 186 252 244 186 252 244 186 252 244 186 252 244 186 252 244 186 252 244 186 252 244 186 252 244 186 252 252 186 252 244 186 252 252 186 252 244 186 252 252 186 252 252 186 252 252 186 252 252 186 252 252 186 252 252 186 252 252 186 252 252 186 252 252 186 252 252 186 252 252 186 252 252 186 252 252 186 252 252 186 252 252 186 252 252 186 252 252 186 252 252 186 252 252 186 252 252 186 252 252 186 244 252 186 252 252 186 244 252 186 252 252 186 244 252 186 244 252 186 244 252 186 244 252 186 244 252 186 244 252 186 244 252 186 236 252 186 244 252 186 236 252 186 244 252 186 236 252 186 236 252 186 236 252 186 236 252 186 236 252 186 236 252 186 236 252 186 236 252 186 228 252 186 236 252 186 228 252 186 236 252 186 228 252 186 228 252 186 228 252 186 228 252 186 228 252 186 228 252 186 228 252 186 228 252 186 220 252 186 228 252 186 220 252 186 228 252 186 220 252 186 220 
252 194 188 252 194 188 252 198 188 252 198 188 252 198 188 252 198 188 252 198 188 252 202 188 252 198 188 252 202 188 252 202 188 252 202 188 252 202 188 252 202 188 252 206 188 252 206 188 252 206 188 252 206 188 252 206 188 252 210 188 252 206 188 252 210 188 252 210 188 252 210 188 252 210 188 252 214 188 252 214 188 252 214 188 252 214 188 252 214 188 252 214 188 252 214 188 252 218 188 252 218 188 252 218 188 252 218 188 252 218 188 252 218 188 252 222 188 252 222 188 252 222 188 252 222 188 252 222 188 252 222 188 252 222 188 252 226 188 252 226 188 252 226 188 252 226 188 252 226 188 252 226 188 252 230 188 252 230 188 252 230 188 252 230 188 252 230 188 252 230 188 252 234 188 252 230 188 252 234 188 252 234 188 252 234 188 252 234 188 252 238 188 252 238 188 252 238 188 252 238 188 252 238 188 252 238 188 252 242 188 252 238 188 252 242 188 252 242 188 252 242 188 252 246 188 252 242 188 252 246 188 252 246 188 252 246 188 252 246 188 252 246 188 252 250 188 252 250 188 252 250 188 252 250 188 252 250 188 252 250 188 252 254 188 252 254 188 252 254 188 252 254 188 252 254 188 252 254 188 252 254 188 252 254 188 252 254 188 252 254 188 252 254 188 252 254 188 252 254 188 252 254 188 252 254 188 252 254 188 252 254 188 244 254 188 252 254 188 244 254 188 244 254 188 244 254 188 244 254 188 244 254 188 244 254 188 244 254 188 244 254 188 244 254 188 236 254 188 244 254 188 236 254 188 244 254 188 236 254 188 236 254 188 236 254 188 236 254 188 236 254 188 236 254 188 236 254 188 236 254 188 228 254 188 236 254 188 228 254 188 236 254 188 228 254 188 228 254 188 228 254 188 228 254 188 228 254 188 228 254 188 228 254 188 228 254 188 220 254 188 228 254 188 220 254 188 228 254 188 220 254 188 220 254 188 220 254 188 220 254 188 220 254 188 220 254 188 220 254 188 220 254 188 220 254 188 220 254 188 212 254 188 220 254 188 212 254 188 220 254 188 212 254 188 212 254 188 212 254 188 212 254 188 212 254 188 212 254 188 212 254 188 212 254 188 204 254 188 212 254 188 204 254 188 212 254 188 204 254 188 204 254 188 204 254 188 204 254 188 204 254 188 204 254 188 204 254 188 204 254 188 196 254 188 204 254 188 196 254 188 204 254 188 196 254 188 196 254 188 196 254 188 196 254 188 196 254 188 196 254 188 196 254 188 196 254 188 188 254 188 196 254 188 188 254 188 196 254 188 188 254 188 188 254 188 188 254 188 188 254 188 188 254 188 188 254 188 188 254 188 188 254 188 188 254 188 188 254 188 188 254 188 188 254 188 188 254 188 188 254 188 188 254 188 188 254 188 188 254 196 188 254 188 188 254 196 188 254 188 188 254 196 188 254 196 188 254 196 188 254 196 188 254 196 188 254 196 188 254 196 188 254 196 188 254 204 188 254 196 188 254 204 188 254 196 188 254 204 188 254 204 188 254 204 188 254 204 188 254 204 188 254 204 188 254 204 188 254 204 188 254 212 188 254 204 188 254 212 188 254 204 188 254 212 188 254 212 188 254 212 188 254 212 188 254 212 188 254 212 188 254 212 188 254 212 188 254 220 188 254 212 188 254 220 188 254 212 188 254 220 188 254 220 188 254 212 188 254 220 188 254 220 188 254 220 188 254 220 188 254 220 188 254 220 188 254 220 188 254 228 188 254 220 188 254 228 188 254 220 188 254 228 188 254 228 188 254 228 188 254 228 188 254 228 188 254 228 188 254 228 188 254 228 188 254 236 188 254 228 188 254 236 188 254 228 188 254 236 188 254 236 188 254 236 188 254 236 188 254 236 188 254 236 188 254 236 188 254 236 188 254 244 188 254 236 188 254 244 188 254 236 188 254 244 188 254 244 188 254 244 188 254 244 188 254 244 188 254 244 188 254 244 188 254 244 188 254 252 188 254 244 188 254 252 188 254 244 188 254 252 188 254 252 188 254 252 188 254 252 188 254 252 188 254 252 188 254 252 188 254 252 188 254 252 188 254 252 188 254 252 188 254 252 188 254 252 188 254 252 188 254 252 188 254 252 188 250 252 188 250 252 188 250 252 188 250 252 188 250 252 188 250 252 188 246 252 188 246 252 188 246 252 188 246 252 188 246 252 188 246 252 188 242 252 188 242 252 188 242 252 188 242 252 188 242 252 188 238 252 188 238 252 188 238 252 188 238 252 188 238 252 188 238 252 188 238 252 188 234 252 188 234 252 188 234 252 188 234 252 188 234 252 188 234 252 188 230 252 188 230 252 188 230 252 188 230 252 188 230 252 188 230 252 188 226 252 188 226 252 188 226 252 188 226 252 188 226 252 188 222 252 188 222 252 188 222 252 188 222 252 188 222 252 188 222 252 188 222 252 188 218 252 188 218 252 188 218 252 188 218 252 188 218 252 188 218 252 188 218 252 188 214 252 188 214 252 188 214 252 188 214 252 188 214 252 188 214 252 188 210 252 188 210 252 188 210 252 188 210 252 188 210 252 188 210 252 188 206 252 188 206 252 188 206 252 188 206 252 188 206 252 188 206 252 188 206 252 188 202 252 188 202 252 188 202 252 188 202 252 188 202 252 188 198 252 188 198 252 188 198 252 188 198 252 188 198 252 188 198 252 188 194 252 188 194 252 188 194 252 188 194 252 188 194 252 188 194 252 188 190 252 188 190 252 188 190 252 188 190 252 188 190 252 188 190 252 188 186 252 188 186 252 188 186 252 188 186 252 188 186 252 188 186 252 188 186 252 188 186 252 188 186 252 188 186 252 188 186 252 188 186 252 188 186 252 196 186 252 188 186 252 196 186 252 188 186 252 196 186 252 196 186 252 196 186 252 196 186 252 196 186 252 196 186 252 196 186 252 196 186 252 204 186 252 196 186 252 204 186 252 196 186 252 204 186 252 204 186 252 204 186 252 204 186 252 204 186 252 204 186 252 204 186 252 212 186 252 204 186 252 212 186 252 204 186 252 212 186 252 212 186 252 212 186 252 212 186 252 212 186 252 212 186 252 212 186 252 212 186 252 212 186 252 220 186 252 212 186 252 220 186 252 212 186 252 220 186 252 220 186 252 220 186 252 220 186 252 220 186 252 220 186 252 220 186 252 220 186 252 220 186 252 228 186 252 220 186 252 228 186 252 220 186 252 228 186 252 228 186 252 228 186 252 228 186 252 228 186 252 228 186 252 228 186 252 228 186 252 228 186 252 236 186 252 228 186 252 236 186 252 236 186 252 228 186 252 236 186 252 236 186 252 236 186 252 236 186 252 236 186 252 236 186 252 244 186 252 236 186 252 244 186 252 236 186 252 244 186 252 244 186 252 244 186 252 244 186 252 244 186 252 244 186 252 244 186 252 244 186 252 244 186 252 252 186 252 244 186 252 252 186 252 244 186 252 252 186 252 252 186 252 252 186 252 252 186 252 252 186 252 252 186 252 252 186 252 252 186 252 252 186 252 252 186 252 252 186 252 252 186 252 252 186 252 252 186 252 252 186 252 252 186 252 252 186 252 252 186 252 252 186 252 252 186 252 252 186 244 252 186 252 252 186 244 252 186 252 252 186 244 252 186 244 252 186 244 252 186 244 252 186 244 252 186 244 252 186 244 252 186 236 252 186 244 252 186 236 252 186 244 252 186 236 252 186 236 252 186 236 252 186 236 252 186 236 252 186 236 252 186 236 252 186 236 252 186 228 252 186 236 252 186 228 252 186 236 252 186 228 252 186 228 252 186 228 252 186 228 252 186 228 252 186 228 252 186 228 252 186 228 252 186 220 252 186 228 252 186 220 252 186 228 252 186 220 252 186 220 
252 194 188 252 194 188 252 198 188 252 198 188 252 198 188 252 198 188 252 198 188 252 202 188 252 198 188 252 202 188 252 202 188 252 202 188 252 202 188 252 202 188 252 206 188 252 206 188 252 206 188 252 206 188 252 206 188 252 210 188 252 206 188 252 210 188 252 210 188 252 210 188 252 210 188 252 214 188 252 214 188 252 214 188 252 214 188 252 214 188 252 214 188 252 214 188 252 218 188 252 218 188 252 218 188 252 218 188 252 218 188 252 218 188 252 222 188 252 222 188 252 222 188 252 222 188 252 222 188 252 222 188 252 222 188 252 226 188 252 226 188 252 226 188 252 226 188 252 226 188 252 226 188 252 230 188 252 230 188 252 230 188 252 230 188 252 230 188 252 230 188 252 234 188 252 230 188 252 234 188 252 234 188 252 234 188 252 234 188 252 238 188 252 238 188 252 238 188 252 238 188 252 238 188 252 238 188 252 242 188 252 238 188 252 242 188 252 242 188 252 242 188 252 246 188 252 242 188 252 246 188 252 246 188 252 246 188 252 246 188 252 246 188 252 250 188 252 250 188 252 250 188 252 250 188 252 250 188 252 250 188 252 254 188 252 254 188 252 254 188 252 254 188 252 254 188 252 254 188 252 254 188 252 254 188 252 254 188 252 254 188 252 254 188 252 254 188 252 254 188 252 254 188 252 254 188 252 254 188 252 254 188 244 254 188 252 254 188 244 254 188 244 254 188 244 254 188 244 254 188 244 254 188 244 254 188 244 254 188 244 254 188 244 254 188 236 254 188 244 254 188 236 254 188 244 254 188 236 254 188 236 254 188 236 254 188 236 254 188 236 254 188 236 254 188 236 254 188 236 254 188 228 254 188 236 254 188 228 254 188 236 254 188 228 254 188 228 254 188 228 254 188 228 254 188 228 254 188 228 254 188 228 254 188 228 254 188 220 254 188 228 254 188 220 254 188 228 254 188 220 254 188 220 254 188 220 254 188 220 254 188 220 254 188 220 254 188 220 254 188 220 254 188 220 254 188 220 254 188 212 254 188 220 254 188 212 254 188 220 254 188 212 254 188 212 254 188 212 254 188 212 254 188 212 254 188 212 254 188 212 254 188 212 254 188 204 254 188 212 254 188 204 254 188 212 254 188 204 254 188 204 254 188 204 254 188 204 254 188 204 254 188 204 254 188 204 254 188 204 254 188 196 254 188 204 254 188 196 254 188 204 254 188 196 254 188 196 254 188 196 254 188 196 254 188 196 254 188 196 254 188 196 254 188 196 254 188 188 254 188 196 254 188 188 254 188 196 254 188 188 254 188 188 254 188 188 254 188 188 254 188 188 254 188 188 254 188 188 254 188 188 254 188 188 254 188 188 254 188 188 254 188 188 254 188 188 254 188 188 254 188 188 254 188 188 254 188 188 254 196 188 254 188 188 254 196 188 254 188 188 254 196 188 254 196 188 254 196 188 254 196 188 254 196 188 254 196 188 254 196 188 254 196 188 254 204 188 254 196 188 254 204 188 254 196 188 254 204 188 254 204 188 254 204 188 254 204 188 254 204 188 254 204 188 254 204 188 254 204 188 254 212 188 254 204 188 254 212 188 254 204 188 254 212 188 254 212 188 254 212 188 254 212 188 254 212 188 254 212 188 254 212 188 254 212 188 254 220 188 254 212 188 254 220 188 254 212 188 254 220 188 254 220 188 254 212 188 254 220 188 254 220 188 254 220 188 254 220 188 254 220 188 254 220 188 254 220 188 254 228 188 254 220 188 254 228 188 254 220 188 254 228 188 254 228 188 254 228 188 254 228 188 254 228 188 254 228 188 254 228 188 254 228 188 254 236 188 254 228 188 254 236 188 254 228 188 254 236 188 254 236 188 254 236 188 254 236 188 254 236 188 254 236 188 254 236 188 254 236 188 254 244 188 254 236 188 254 244 188 254 236 188 254 244 188 254 244 188 254 244 188 254 244 188 254 244 188 254 244 188 254 244 188 254 244 188 254 252 188 254 244 188 254 252 188 254 244 188 254 252 188 254 252 188 254 252 188 254 252 188 254 252 188 254 252 188 254 252 188 254 252 188 254 252 188 254 252 188 254 252 188 254 252 188 254 252 188 254 252 188 254 252 188 254 252 188 250 252 188 250 252 188 250 252 188 250 252 188 250 252 188 250 252 188 246 252 188 246 252 188 246 252 188 246 252 188 246 252 188 246 252 188 242 252 188 242 252 188 242 252 188 242 252 188 242 252 188 238 252 188 238 252 188 238 252 188 238 252 188 238 252 188 238 252 188 238 252 188 234 252 188 234 252 188 234 252 188 234 252 188 234 252 188 234 252 188 230 252 188 230 252 188 230 252 188 230 252 188 230 252 188 230 252 188 226 252 188 226 252 188 226 252 188 226 252 188 226 252 188 222 252 188 222 252 188 222 252 188 222 252 188 222 252 188 222 252 188 222 252 188 218 252 188 218 252 188 218 252 188 218 252 188 218 252 188 218 252 188 218 252 188 214 252 188 214 252 188 214 252 188 214 252 188 214 252 188 214 252 188 210 252 188 210 252 188 210 252 188 210 252 188 210 252 188 210 252 188 206 252 188 206 252 188 206 252 188 206 252 188 206 252 188 206 252 188 206 252 188 202 252 188 202 252 188 202 252 188 202 252 188 202 252 188 198 252 188 198 252 188 198 252 188 198 252 188 198 252 188 198 252 188 194 252 188 194 252 188 194 252 188 194 252 188 194 252 188 194 252 188 190 252 188 190 252 188 190 252 188 190 252 188 190 252 188 190 252 188 186 252 188 186 252 188 186 252 188 186 252 188 186 252 188 186 252 188 186 252 188 186 252 188 186 252 188 186 252 188 186 252 188 186 252 188 186 252 196 186 252 188 186 252 196 186 252 188 186 252 196 186 252 196 186 252 196 186 252 196 186 252 196 186 252 196 186 252 196 186 252 196 186 252 204 186 252 196 186 252 204 186 252 196 186 252 204 186 252 204 186 252 204 186 252 204 186 252 204 186 252 204 186 252 204 186 252 212 186 252 204 186 252 212 186 252 204 186 252 212 186 252 212 186 252 212 186 252 212 186 252 212 186 252 212 186 252 212 186 252 212 186 252 212 186 252 220 186 252 212 186 252 220 186 252 212 186 252 220 186 252 220 186 252 220 186 252 220 186 252 220 186 252 220 186 252 220 186 252 220 186 252 220 186 252 228 186 252 220 186 252 228 186 252 220 186 252 228 186 252 228 186 252 228 186 252 228 186 252 228 186 252 228 186 252 228 186 252 228 186 252 228 186 252 236 186 252 228 186 252 236 186 252 236 186 252 228 186 252 236 186 252 236 186 252 236 186 252 236 186 252 236 186 252 236 186 252 244 186 252 236 186 252 244 186 252 236 186 252 244 186 252 244 186 252 244 186 252 244 186 252 244 186 252 244 186 252 244 186 252 244 186 252 244 186 252 252 186 252 244 186 252 252 186 252 244 186 252 252 186 252 252 186 252 252 186 252 252 186 252 252 186 252 252 186 252 252 186 252 252 186 252 252 186 252 252 186 252 252 186 252 252 186 252 252 186 252 252 186 252 252 186 252 252 186 252 252 186 252 252 186 252 252 186 252 252 186 252 252 186 244 252 186 252 252 186 244 252 186 252 252 186 244 252 186 244 252 186 244 252 186 244 252 186 244 252 186 244 252 186 244 252 186 236 252 186 244 252 186 236 252 186 244 252 186 236 252 186 236 252 186 236 252 186 236 252 186 236 252 186 236 252 186 236 252 186 236 252 186 228 252 186 236 252 186 228 252 186 236 252 186 228 252 186 228 252 186 228 252 186 228 252 186 228 252 186 228 252 186 228 252 186 228 252 186 220 252 186 228 252 186 220 252 186 228 252 186 220 252 186 220 
252 194 188 252 194 188 252 198 188 252 198 188 252 198 188 252 198 188 252 198 188 252 202 188 252 198 188 252 202 188 252 202 188 252 202 188 252 202 188 252 202 188 252 206 188 252 206 188 252 206 188 252 206 188 252 206 188 252 210 188 252 206 188 252 210 188 252 210 188 252 210 188 252 210 188 252 214 188 252 214 188 252 214 188 252 214 188 252 214 188 252 214 188 252 214 188 252 218 188 252 218 188 252 218 188 252 218 188 252 218 188 252 218 188 252 222 188 252 222 188 252 222 188 252 222 188 252 222 188 252 222 188 252 222 188 252 226 188 252 226 188 252 226 188 252 226 188 252 226 188 252 226 188 252 230 188 252 230 188 252 230 188 252 230 188 252 230 188 252 230 188 252 234 188 252 230 188 252 234 188 252 234 188 252 234 188 252 234 188 252 238 188 252 238 188 252 238 188 252 238 188 252 238 188 252 238 188 252 242 188 252 238 188 252 242 188 252 242 188 252 242 188 252 246 188 252 242 188 252 246 188 252 246 188 252 246 188 252 246 188 252 246 188 252 250 188 252 250 188 252 250 188 252 250 188 252 250 188 252 250 188 252 254 188 252 254 188 252 254 188 252 254 188 252 254 188 252 254 188 252 254 188 252 254 188 252 254 188 252 254 188 252 254 188 252 254 188 252 254 188 252 254 188 252 254 188 252 254 188 252 254 188 244 254 188 252 254 188 244 254 188 244 254 188 244 254 188 244 254 188 244 254 188 244 254 188 244 254 188 244 254 188 244 254 188 236 254 188 244 254 188 236 254 188 244 254 188 236 254 188 236 254 188 236 254 188 236 254 188 236 254 188 236 254 188 236 254 188 236 254 188 228 254 188 236 254 188 228 254 188 236 254 188 228 254 188 228 254 188 228 254 188 228 254 188 228 254 188 228 254 188 228 254 188 228 254 188 220 254 188 228 254 188 220 254 188 228 254 188 220 254 188 220 254 188 220 254 188 220 254 188 220 254 188 220 254 188 220 254 188 220 254 188 220 254 188 220 254 188 212 254 188 220 254 188 212 254 188 220 254 188 212 254 188 212 254 188 212 254 188 212 254 188 212 254 188 212 254 188 212 254 188 212 254 188 204 254 188 212 254 188 204 254 188 212 254 188 204 254 188 204 254 188 204 254 188 204 254 188 204 254 188 204 254 188 204 254 188 204 254 188 196 254 188 204 254 188 196 254 188 204 254 188 196 254 188 196 254 188 196 254 188 196 254 188 196 254 188 196 254 188 196 254 188 196 254 188 188 254 188 196 254 188 188 254 188 196 254 188 188 254 188 188 254 188 188 254 188 188 254 188 188 254 188 188 254 188 188 254 188 188 254 188 188 254 188 188 254 188 188 254 188 188 254 188 188 254 188 188 254 188 188 254 188 188 254 188 188 254 196 188 254 188 188 254 196 188 254 188 188 254 196 188 254 196 188 254 196 188 254 196 188 254 196 188 254 196 188 254 196 188 254 196 188 254 204 188 254 196 188 254 204 188 254 196 188 254 204 188 254 204 188 254 204 188 254 204 188 254 204 188 254 204 188 254 204 188 254 204 188 254 212 188 254 204 188 254 212 188 254 204 188 254 212 188 254 212 188 254 212 188 254 212 188 254 212 188 254 212 188 254 212 188 254 212 188 254 220 188 254 212 188 254 220 188 254 212 188 254 220 188 254 220 188 254 212 188 254 220 188 254 220 188 254 220 188 254 220 188 254 220 188 254 220 188 254 220 188 254 228 188 254 220 188 254 228 188 254 220 188 254 228 188 254 228 188 254 228 188 254 228 188 254 228 188 254 228 188 254 228 188 254 228 188 254 236 188 254 228 188 254 236 188 254 228 188 254 236 188 254 236 188 254 236 188 254 236 188 254 236 188 254 236 188 254 236 188 254 236 188 254 244 188 254 236 188 254 244 188 254 236 188 254 244 188 254 244 188 254 244 188 254 244 188 254 244 188 254 244 188 254 244 188 254 244 188 254 252 188 254 244 188 254 252 188 254 244 188 254 252 188 254 252 188 254 252 188 254 252 188 254 252 188 254 252 188 254 252 188 254 252 188 254 252 188 254 252 188 254 252 188 254 252 188 254 252 188 254 252 188 254 252 188 254 252 188 250 252 188 250 252 188 250 252 188 250 252 188 250 252 188 250 252 188 246 252 188 246 252 188 246 252 188 246 252 188 246 252 188 246 252 188 242 252 188 242 252 188 242 252 188 242 252 188 242 252 188 238 252 188 238 252 188 238 252 188 238 252 188 238 252 188 238 252 188 238 252 188 234 252 188 234 252 188 234 252 188 234 252 188 234 252 188 234 252 188 230 252 188 230 252 188 230 252 188 230 252 188 230 252 188 230 252 188 226 252 188 226 252 188 226 252 188 226 252 188 226 252 188 222 252 188 222 252 188 222 252 188 222 252 188 222 252 188 222 252 188 222 252 188 218 252 188 218 252 188 218 252 188 218 252 188 218 252 188 218 252 188 218 252 188 214 252 188 214 252 188 214 252 188 214 252 188 214 252 188 214 252 188 210 252 188 210 252 188 210 252 188 210 252 188 210 252 188 210 252 188 206 252 188 206 252 188 206 252 188 206 252 188 206 252 188 206 252 188 206 252 188 202 252 188 202 252 188 202 252 188 202 252 188 202 252 188 198 252 188 198 252 188 198 252 188 198 252 188 198 252 188 198 252 188 194 252 188 194 252 188 194 252 188 194 252 188 194 252 188 194 252 188 190 252 188 190 252 188 190 252 188 190 252 188 190 252 188 190 252 188 186 252 188 186 252 188 186 252 188 186 252 188 186 252 188 186 252 188 186 252 188 186 252 188 186 252 188 186 252 188 186 252 188 186 252 188 186 252 196 186 252 188 186 252 196 186 252 188 186 252 196 186 252 196 186 252 196 186 252 196 186 252 196 186 252 196 186 252 196 186 252 196 186 252 204 186 252 196 186 252 204 186 252 196 186 252 204 186 252 204 186 252 204 186 252 204 186 252 204 186 252 204 186 252 204 186 252 212 186 252 204 186 252 212 186 252 204 186 252 212 186 252 212 186 252 212 186 252 212 186 252 212 186 252 212 186 252 212 186 252 212 186 252 212 186 252 220 186 252 212 186 252 220 186 252 212 186 252 220 186 252 220 186 252 220 186 252 220 186 252 220 186 252 220 186 252 220 186 252 220 186 252 220 186 252 228 186 252 220 186 252 228 186 252 220 186 252 228 186 252 228 186 252 228 186 252 228 186 252 228 186 252 228 186 252 228 186 252 228 186 252 228 186 252 236 186 252 228 186 252 236 186 252 236 186 252 228 186 252 236 186 252 236 186 252 236 186 252 236 186 252 236 186 252 236 186 252 244 186 252 236 186 252 244 186 252 236 186 252 244 186 252 244 186 252 244 186 252 244 186 252 244 186 252 244 186 252 244 186 252 244 186 252 244 186 252 252 186 252 244 186 252 252 186 252 244 186 252 252 186 252 252 186 252 252 186 252 252 186 252 252 186 252 252 186 252 252 186 252 252 186 252 252 186 252 252 186 252 252 186 252 252 186 252 252 186 252 252 186 252 252 186 252 252 186 252 252 186 252 252 186 252 252 186 252 252 186 252 252 186 244 252 186 252 252 186 244 252 186 252 252 186 244 252 186 244 252 186 244 252 186 244 252 186 244 252 186 244 252 186 244 252 186 236 252 186 244 252 186 236 252 186 244 252 186 236 252 186 236 252 186 236 252 186 236 252 186 236 252 186 236 252 186 236 252 186 236 252 186 228 252 186 236 252 186 228 252 186 236 252 186 228 252 186 228 252 186 228 252 186 228 252 186 228 252 186 228 252 186 228 252 186 228 252 186 220 252 186 228 252 186 220 252 186 228 252 186 220 252 186 220 
252 194 188 252 194 188 252 198 188 252 198 188 252 198 188 252 198 188 252 198 188 252 202 188 252 198 188 252 202 188 252 202 188 252 202 188 252 202 188 252 202 188 252 206 188 252 206 188 252 206 188 252 206 188 252 206 188 252 210 188 252 206 188 252 210 188 252 210 188 252 210 188 252 210 188 252 214 188 252 214 188 252 214 188 252 214 188 252 214 188 252 214 188 252 214 188 252 218 188 252 218 188 252 218 188 252 218 188 252 218 188 252 218 188 252 222 188 252 222 188 252 222 188 252 222 188 252 222 188 252 222 188 252 222 188 252 226 188 252 226 188 252 226 188 252 226 188 252 226 188 252 226 188 252 230 188 252 230 188 252 230 188 252 230 188 252 230 188 252 230 188 252 234 188 252 230 188 252 234 188 252 234 188 252 234 188 252 234 188 252 238 188 252 238 188 252 238 188 252 238 188 252 238 188 252 238 188 252 242 188 252 238 188 252 242 188 252 242 188 252 242 188 252 246 188 252 242 188 252 246 188 252 246 188 252 246 188 252 246 188 252 246 188 252 250 188 252 250 188 252 250 188 252 250 188 252 250 188 252 250 188 252 254 188 252 254 188 252 254 188 252 254 188 252 254 188 252 254 188 252 254 188 252 254 188 252 254 188 252 254 188 252 254 188 252 254 188 252 254 188 252 254 188 252 254 188 252 254 188 252 254 188 244 254 188 252 254 188 244 254 188 244 254 188 244 254 188 244 254 188 244 254 188 244 254 188 244 254 188 244 254 188 244 254 188 236 254 188 244 254 188 236 254 188 244 254 188 236 254 188 236 254 188 236 254 188 236 254 188 236 254 188 236 254 188 236 254 188 236 254 188 228 254 188 236 254 188 228 254 188 236 254 188 228 254 188 228 254 188 228 254 188 228 254 188 228 254 188 228 254 188 228 254 188 228 254 188 220 254 188 228 254 188 220 254 188 228 254 188 220 254 188 220 254 188 220 254 188 220 254 188 220 254 188 220 254 188 220 254 188 220 254 188 220 254 188 220 254 188 212 254 188 220 254 188 212 254 188 220 254 188 212 254 188 212 254 188 212 254 188 212 254 188 212 254 188 212 254 188 212 254 188 212 254 188 204 254 188 212 254 188 204 254 188 212 254 188 204 254 188 204 254 188 204 254 188 204 254 188 204 254 188 204 254 188 204 254 188 204 254 188 196 254 188 204 254 188 196 254 188 204 254 188 196 254 188 196 254 188 196 254 188 196 254 188 196 254 188 196 254 188 196 254 188 196 254 188 188 254 188 196 254 188 188 254 188 196 254 188 188 254 188 188 254 188 188 254 188 188 254 188 188 254 188 188 254 188 188 254 188 188 254 188 188 254 188 188 254 188 188 254 188 188 254 188 188 254 188 188 254 188 188 254 188 188 254 188 188 254 196 188 254 188 188 254 196 188 254 188 188 254 196 188 254 196 188 254 196 188 254 196 188 254 196 188 254 196 188 254 196 188 254 196 188 254 204 188 254 196 188 254 204 188 254 196 188 254 204 188 254 204 188 254 204 188 254 204 188 254 204 188 254 204 188 254 204 188 254 204 188 254 212 188 254 204 188 254 212 188 254 204 188 254 212 188 254 212 188 254 212 188 254 212 188 254 212 188 254 212 188 254 212 188 254 212 188 254 220 188 254 212 188 254 220 188 254 212 188 254 220 188 254 220 188 254 212 188 254 220 188 254 220 188 254 220 188 254 220 188 254 220 188 254 220 188 254 220 188 254 228 188 254 220 188 254 228 188 254 220 188 254 228 188 254 228 188 254 228 188 254 228 188 254 228 188 254 228 188 254 228 188 254 228 188 254 236 188 254 228 188 254 236 188 254 228 188 254 236 188 254 236 188 254 236 188 254 236 188 254 236 188 254 236 188 254 236 188 254 236 188 254 244 188 254 236 188 254 244 188 254 236 188 254 244 188 254 244 188 254 244 188 254 244 188 254 244 188 254 244 188 254 244 188 254 244 188 254 252 188 254 244 188 254 252 188 254 244 188 254 252 188 254 252 188 254 252 188 254 252 188 254 252 188 254 252 188 254 252 188 254 252 188 254 252 188 254 252 188 254 252 188 254 252 188 254 252 188 254 252 188 254 252 188 254 252 188 250 252 188 250 252 188 250 252 188 250 252 188 250 252 188 250 252 188 246 252 188 246 252 188 246 252 188 246 252 188 246 252 188 246 252 188 242 252 188 242 252 188 242 252 188 242 252 188 242 252 188 238 252 188 238 252 188 238 252 188 238 252 188 238 252 188 238 252 188 238 252 188 234 252 188 234 252 188 234 252 188 234 252 188 234 252 188 234 252 188 230 252 188 230 252 188 230 252 188 230 252 188 230 252 188 230 252 188 226 252 188 226 252 188 226 252 188 226 252 188 226 252 188 222 252 188 222 252 188 222 252 188 222 252 188 222 252 188 222 252 188 222 252 188 218 252 188 218 252 188 218 252 188 218 252 188 218 252 188 218 252 188 218 252 188 214 252 188 214 252 188 214 252 188 214 252 188 214 252 188 214 252 188 210 252 188 210 252 188 210 252 188 210 252 188 210 252 188 210 252 188 206 252 188 206 252 188 206 252 188 206 252 188 206 252 188 206 252 188 206 252 188 202 252 188 202 252 188 202 252 188 202 252 188 202 252 188 198 252 188 198 252 188 198 252 188 198 252 188 198 252 188 198 252 188 194 252 188 194 252 188 194 252 188 194 252 188 194 252 188 194 252 188 190 252 188 190 252 188 190 252 188 190 252 188 190 252 188 190 252 188 186 252 188 186 252 188 186 252 188 186 252 188 186 252 188 186 252 188 186 252 188 186 252 188 186 252 188 186 252 188 186 252 188 186 252 188 186 252 196 186 252 188 186 252 196 186 252 188 186 252 196 186 252 196 186 252 196 186 252 196 186 252 196 186 252 196 186 252 196 186 252 196 186 252 204 186 252 196 186 252 204 186 252 196 186 252 204 186 252 204 186 252 204 186 252 204 186 252 204 186 252 204 186 252 204 186 252 212 186 252 204 186 252 212 186 252 204 186 252 212 186 252 212 186 252 212 186 252 212 186 252 212 186 252 212 186 252 212 186 252 212 186 252 212 186 252 220 186 252 212 186 252 220 186 252 212 186 252 220 186 252 220 186 252 220 186 252 220 186 252 220 186 252 220 186 252 220 186 252 220 186 252 220 186 252 228 186 252 220 186 252 228 186 252 220 186 252 228 186 252 228 186 252 228 186 252 228 186 252 228 186 252 228 186 252 228 186 252 228 186 252 228 186 252 236 186 252 228 186 252 236 186 252 236 186 252 228 186 252 236 186 252 236 186 252 236 186 252 236 186 252 236 186 252 236 186 252 244 186 252 236 186 252 244 186 252 236 186 252 244 186 252 244 186 252 244 186 252 244 186 252 244 186 252 244 186 252 244 186 252 244 186 252 244 186 252 252 186 252 244 186 252 252 186 252 244 186 252 252 186 252 252 186 252 252 186 252 252 186 252 252 186 252 252 186 252 252 186 252 252 186 252 252 186 252 252 186 252 252 186 252 252 186 252 252 186 252 252 186 252 252 186 252 252 186 252 252 186 252 252 186 252 252 186 252 252 186 252 252 186 244 252 186 252 252 186 244 252 186 252 252 186 244 252 186 244 252 186 244 252 186 244 252 186 244 252 186 244 252 186 244 252 186 236 252 186 244 252 186 236 252 186 244 252 186 236 252 186 236 252 186 236 252 186 236 252 186 236 252 186 236 252 186 236 252 186 236 252 186 228 252 186 236 252 186 228 252 186 236 252 186 228 252 186 228 252 186 228 252 186 228 252 186 228 252 186 228 252 186 228 252 186 228 252 186 220 252 186 228 252 186 220 252 186 228 252 186 220 252 186 220 
